Coordinates
version=1
nRows=32
nColumns=12
inDegrees=yes

Units are S.I. units (second, meters, Newtons, ...)
Angles are in degrees

endheader
time	SC_y	SC_z	SC_x	AC_y	AC_z	AC_x	GH_y	GH_z	GH_yy	EL_x	PS_y
       0.0               -29.8        -0.4338          12.25          62.85         -7.608           6.66          5.213         -17.48          109.8          127.3          34.79
   0.02659               -29.8        -0.4324          12.25          62.85         -7.606          6.661          5.225         -17.48          109.8          127.3           34.8
   0.05318               -29.8         -0.431          12.26          62.84         -7.605          6.661          5.238         -17.48          109.8          127.3          34.81
   0.07977               -29.8        -0.4294          12.26          62.84         -7.603          6.662          5.252         -17.47          109.7          127.3          34.82
    0.1064               -29.8        -0.4277          12.27          62.84         -7.601          6.663          5.267         -17.47          109.7          127.3          34.83
     0.133              -29.79         -0.426          12.28          62.83         -7.599          6.663          5.283         -17.46          109.6          127.2          34.85
    0.1595              -29.79        -0.4241          12.28          62.83         -7.597          6.664          5.299         -17.46          109.6          127.2          34.86
    0.1861              -29.79         -0.422          12.29          62.82         -7.595          6.665          5.317         -17.45          109.6          127.2          34.87
    0.2127              -29.79        -0.4199           12.3          62.82         -7.593          6.666          5.337         -17.45          109.5          127.2          34.89
    0.2393              -29.78        -0.4175          12.31          62.81          -7.59          6.667          5.357         -17.44          109.5          127.2           34.9
    0.2659              -29.78         -0.415          12.32           62.8         -7.587          6.668           5.38         -17.44          109.4          127.2          34.92
    0.2925              -29.78        -0.4124          12.33           62.8         -7.584          6.669          5.404         -17.43          109.3          127.2          34.94
    0.3191              -29.77        -0.4095          12.34          62.79         -7.581           6.67           5.43         -17.42          109.3          127.2          34.96
    0.3457              -29.77        -0.4063          12.35          62.78         -7.578          6.671          5.457         -17.41          109.2          127.2          34.98
    0.3723              -29.77        -0.4029          12.36          62.78         -7.574          6.673          5.488         -17.41          109.1          127.2           35.0
    0.3989              -29.76        -0.3993          12.37          62.77          -7.57          6.674           5.52          -17.4          109.1          127.2          35.03
    0.4255              -29.76        -0.3953          12.39          62.76         -7.566          6.676          5.556         -17.39          109.0          127.1          35.06
     0.452              -29.75        -0.3909           12.4          62.75         -7.561          6.677          5.595         -17.37          108.9          127.1          35.09
    0.4786              -29.75        -0.3862          12.42          62.73         -7.556          6.679          5.637         -17.36          108.8          127.1          35.12
    0.5052              -29.74         -0.381          12.44          62.72          -7.55          6.681          5.683         -17.35          108.7          127.1          35.16
    0.5318              -29.73        -0.3752          12.46          62.71         -7.544          6.684          5.734         -17.33          108.5          127.1          35.19
    0.5584              -29.73         -0.369          12.49          62.69         -7.537          6.686           5.79         -17.32          108.4          127.0          35.24
     0.585              -29.72         -0.362          12.51          62.68          -7.53          6.689          5.852          -17.3          108.2          127.0          35.29
    0.6116              -29.71        -0.3543          12.54          62.66         -7.521          6.692          5.921         -17.28          108.1          127.0          35.34
    0.6382               -29.7        -0.3458          12.57          62.64         -7.512          6.695          5.997         -17.26          107.9          127.0           35.4
    0.6648              -29.69        -0.3362          12.61          62.61         -7.502          6.699          6.082         -17.24          107.7          126.9          35.46
    0.6914              -29.67        -0.3255          12.64          62.59          -7.49          6.704          6.177         -17.21          107.4          126.9          35.54
     0.718              -29.66        -0.3135          12.69          62.56         -7.477          6.708          6.284         -17.18          107.2          126.9          35.62
    0.7445              -29.64        -0.2999          12.74          62.52         -7.462          6.714          6.405         -17.14          106.9          126.8          35.71
    0.7711              -29.62        -0.2845          12.79          62.49         -7.446           6.72          6.543          -17.1          106.5          126.8          35.82
    0.7977               -29.6        -0.2669          12.86          62.44         -7.426          6.727            6.7         -17.06          106.1          126.7          35.94
    0.8243              -29.58        -0.2466          12.93           62.4         -7.405          6.735           6.88         -17.01          105.7          126.6          36.08
